<svg xmlns="http://www.w3.org/2000/svg" xmlns:xlink="http://www.w3.org/1999/xlink" width="168" zoomAndPan="magnify" viewBox="0 0 126 30.000001" height="40" preserveAspectRatio="xMidYMid meet" version="1.0"><defs><clipPath id="id1"><path d="M 45.582031 1.097656 L 72.433594 1.097656 L 72.433594 27.953125 L 45.582031 27.953125 Z M 45.582031 1.097656 " clip-rule="nonzero"/></clipPath><clipPath id="id2"><path d="M 51 10 L 72.433594 10 L 72.433594 27.953125 L 51 27.953125 Z M 51 10 " clip-rule="nonzero"/></clipPath></defs><g clip-path="url(#id1)"><path fill="rgb(99.21875%, 78.819275%, 23.139954%)" d="M 72.441406 14.53125 C 72.441406 20.4375 68.632812 25.453125 63.335938 27.25 C 62.894531 27.398438 62.441406 27.527344 61.980469 27.632812 C 61.820312 27.667969 61.660156 27.699219 61.5 27.730469 C 61.488281 27.734375 61.472656 27.734375 61.460938 27.738281 C 60.667969 27.886719 59.847656 27.960938 59.011719 27.960938 C 58.488281 27.960938 57.972656 27.929688 57.460938 27.871094 C 50.777344 27.101562 45.582031 21.425781 45.582031 14.53125 C 45.582031 7.113281 51.597656 1.101562 59.011719 1.101562 C 64.535156 1.101562 69.273438 4.429688 71.339844 9.191406 C 71.367188 9.257812 71.394531 9.324219 71.425781 9.390625 C 71.695312 10.050781 71.917969 10.734375 72.085938 11.441406 C 72.167969 11.785156 72.234375 12.128906 72.285156 12.480469 C 72.304688 12.605469 72.324219 12.734375 72.339844 12.863281 C 72.40625 13.410156 72.441406 13.964844 72.441406 14.53125 Z M 72.441406 14.53125 " fill-opacity="1" fill-rule="nonzero"/></g><g clip-path="url(#id2)"><path fill="rgb(96.859741%, 65.489197%, 22.349548%)" d="M 72.441406 14.53125 C 72.441406 20.4375 68.632812 25.453125 63.335938 27.25 C 62.894531 27.398438 62.441406 27.527344 61.980469 27.632812 L 51.402344 20.242188 L 69.113281 10.832031 L 72.339844 12.863281 C 72.40625 13.410156 72.441406 13.964844 72.441406 14.53125 Z M 72.441406 14.53125 " fill-opacity="1" fill-rule="nonzero"/></g><path fill="rgb(23.529053%, 24.708557%, 49.409485%)" d="M 51.402344 11.039062 L 51.402344 20.242188 C 51.402344 20.652344 54.6875 20.980469 58.734375 20.980469 C 62.785156 20.980469 66.066406 20.652344 66.066406 20.242188 L 66.066406 11.039062 Z M 51.402344 11.039062 " fill-opacity="1" fill-rule="nonzero"/><path fill="rgb(33.329773%, 37.649536%, 66.268921%)" d="M 69.15625 11.804688 L 58.90625 15.441406 C 58.796875 15.480469 58.675781 15.480469 58.566406 15.441406 L 48.316406 11.804688 C 47.847656 11.636719 47.871094 10.960938 48.355469 10.832031 L 58.605469 8.097656 C 58.691406 8.074219 58.78125 8.074219 58.867188 8.097656 L 69.117188 10.832031 C 69.597656 10.960938 69.625 11.636719 69.15625 11.804688 Z M 69.15625 11.804688 " fill-opacity="1" fill-rule="nonzero"/><path fill="rgb(89.408875%, 21.179199%, 14.898682%)" d="M 66.109375 11.195312 C 66.894531 11.074219 67.714844 11.332031 68.222656 11.960938 C 68.792969 12.664062 68.535156 13.625 68.375 14.433594 C 68.070312 16.023438 68.117188 17.550781 68.730469 19.066406 C 68.808594 19.253906 69.117188 19.171875 69.039062 18.980469 C 68.632812 17.980469 68.433594 16.921875 68.492188 15.84375 C 68.550781 14.796875 68.996094 13.738281 68.871094 12.683594 C 68.71875 11.347656 67.214844 10.707031 66.023438 10.886719 C 65.824219 10.914062 65.910156 11.222656 66.109375 11.195312 Z M 66.109375 11.195312 " fill-opacity="1" fill-rule="nonzero"/><path fill="rgb(89.408875%, 21.179199%, 14.898682%)" d="M 68.34375 20.503906 C 68.371094 20.449219 68.421875 20.28125 68.46875 20.238281 C 68.492188 20.292969 68.5 20.46875 68.511719 20.527344 C 68.585938 20.535156 68.871094 20.539062 68.9375 20.539062 C 68.9375 20.480469 68.929688 20.320312 68.929688 20.261719 C 68.980469 20.316406 69.039062 20.476562 69.089844 20.53125 C 69.257812 20.519531 69.429688 20.492188 69.59375 20.453125 C 69.59375 20.4375 69.53125 20.136719 69.53125 20.136719 C 69.550781 20.144531 69.664062 20.367188 69.6875 20.429688 C 69.8125 20.398438 69.933594 20.359375 70.050781 20.3125 C 69.898438 19.96875 69.761719 19.617188 69.574219 19.289062 C 69.464844 19.097656 69.351562 18.90625 69.207031 18.742188 C 69.085938 18.597656 68.894531 18.40625 68.6875 18.421875 C 68.554688 18.433594 68.449219 18.535156 68.375 18.648438 C 68.371094 18.652344 68.371094 18.65625 68.367188 18.660156 C 68.207031 18.914062 68.160156 19.222656 68.09375 19.511719 C 68.078125 19.574219 67.976562 20.152344 67.9375 20.402344 C 68.066406 20.445312 68.203125 20.480469 68.34375 20.503906 Z M 68.34375 20.503906 " fill-opacity="1" fill-rule="nonzero"/></svg>