<svg xmlns="http://www.w3.org/2000/svg" xmlns:xlink="http://www.w3.org/1999/xlink" width="168" zoomAndPan="magnify" viewBox="0 0 126 30.000001" height="40" preserveAspectRatio="xMidYMid meet" version="1.0"><defs><g/><clipPath id="id1"><path d="M 4.933594 1.097656 L 31.789062 1.097656 L 31.789062 27.953125 L 4.933594 27.953125 Z M 4.933594 1.097656 " clip-rule="nonzero"/></clipPath><clipPath id="id2"><path d="M 10 10 L 31.789062 10 L 31.789062 27.953125 L 10 27.953125 Z M 10 10 " clip-rule="nonzero"/></clipPath></defs><g clip-path="url(#id1)"><path fill="rgb(99.21875%, 78.819275%, 23.139954%)" d="M 31.796875 14.53125 C 31.796875 20.4375 27.988281 25.453125 22.691406 27.25 C 22.25 27.398438 21.796875 27.527344 21.335938 27.632812 C 21.175781 27.667969 21.015625 27.699219 20.855469 27.730469 C 20.84375 27.734375 20.828125 27.734375 20.8125 27.738281 C 20.019531 27.886719 19.203125 27.960938 18.367188 27.960938 C 17.84375 27.960938 17.324219 27.929688 16.816406 27.871094 C 10.132812 27.101562 4.9375 21.425781 4.9375 14.53125 C 4.9375 7.113281 10.949219 1.101562 18.367188 1.101562 C 23.886719 1.101562 28.628906 4.429688 30.695312 9.191406 C 30.722656 9.257812 30.75 9.324219 30.777344 9.390625 C 31.050781 10.050781 31.273438 10.734375 31.441406 11.441406 C 31.519531 11.785156 31.589844 12.128906 31.640625 12.480469 C 31.660156 12.605469 31.679688 12.734375 31.695312 12.863281 C 31.761719 13.410156 31.796875 13.964844 31.796875 14.53125 Z M 31.796875 14.53125 " fill-opacity="1" fill-rule="nonzero"/></g><g clip-path="url(#id2)"><path fill="rgb(96.859741%, 65.489197%, 22.349548%)" d="M 31.796875 14.53125 C 31.796875 20.4375 27.988281 25.453125 22.691406 27.25 C 22.25 27.398438 21.796875 27.527344 21.335938 27.632812 L 10.757812 20.242188 L 28.46875 10.832031 L 31.695312 12.863281 C 31.761719 13.410156 31.796875 13.964844 31.796875 14.53125 Z M 31.796875 14.53125 " fill-opacity="1" fill-rule="nonzero"/></g><path fill="rgb(23.529053%, 24.708557%, 49.409485%)" d="M 10.757812 11.039062 L 10.757812 20.242188 C 10.757812 20.652344 14.039062 20.980469 18.089844 20.980469 C 22.136719 20.980469 25.421875 20.652344 25.421875 20.242188 L 25.421875 11.039062 Z M 10.757812 11.039062 " fill-opacity="1" fill-rule="nonzero"/><path fill="rgb(33.329773%, 37.649536%, 66.268921%)" d="M 28.507812 11.804688 L 18.261719 15.441406 C 18.148438 15.480469 18.03125 15.480469 17.921875 15.441406 L 7.671875 11.804688 C 7.199219 11.636719 7.226562 10.960938 7.710938 10.832031 L 17.960938 8.097656 C 18.046875 8.074219 18.136719 8.074219 18.222656 8.097656 L 28.472656 10.832031 C 28.953125 10.960938 28.980469 11.636719 28.507812 11.804688 Z M 28.507812 11.804688 " fill-opacity="1" fill-rule="nonzero"/><path fill="rgb(89.408875%, 21.179199%, 14.898682%)" d="M 25.464844 11.195312 C 26.25 11.074219 27.070312 11.332031 27.578125 11.960938 C 28.148438 12.664062 27.886719 13.625 27.730469 14.433594 C 27.425781 16.023438 27.46875 17.550781 28.085938 19.066406 C 28.164062 19.253906 28.472656 19.171875 28.394531 18.980469 C 27.988281 17.980469 27.789062 16.921875 27.847656 15.84375 C 27.90625 14.796875 28.351562 13.738281 28.226562 12.683594 C 28.074219 11.347656 26.570312 10.707031 25.378906 10.886719 C 25.175781 10.914062 25.261719 11.222656 25.464844 11.195312 Z M 25.464844 11.195312 " fill-opacity="1" fill-rule="nonzero"/><path fill="rgb(89.408875%, 21.179199%, 14.898682%)" d="M 27.699219 20.503906 C 27.726562 20.449219 27.777344 20.28125 27.820312 20.238281 C 27.847656 20.292969 27.851562 20.46875 27.863281 20.527344 C 27.941406 20.535156 28.226562 20.539062 28.292969 20.539062 C 28.292969 20.480469 28.285156 20.320312 28.285156 20.261719 C 28.335938 20.316406 28.394531 20.476562 28.445312 20.53125 C 28.613281 20.519531 28.785156 20.492188 28.949219 20.453125 C 28.949219 20.4375 28.886719 20.136719 28.886719 20.136719 C 28.902344 20.144531 29.019531 20.367188 29.042969 20.429688 C 29.164062 20.398438 29.285156 20.359375 29.40625 20.3125 C 29.253906 19.96875 29.117188 19.617188 28.929688 19.289062 C 28.820312 19.097656 28.707031 18.90625 28.5625 18.742188 C 28.4375 18.597656 28.25 18.40625 28.042969 18.421875 C 27.910156 18.433594 27.804688 18.535156 27.730469 18.648438 C 27.726562 18.652344 27.722656 18.65625 27.722656 18.660156 C 27.5625 18.914062 27.515625 19.222656 27.449219 19.511719 C 27.433594 19.574219 27.332031 20.152344 27.292969 20.402344 C 27.421875 20.445312 27.558594 20.480469 27.699219 20.503906 Z M 27.699219 20.503906 " fill-opacity="1" fill-rule="nonzero"/><g fill="rgb(100%, 75.689697%, 69.799805%)" fill-opacity="0.302"><g transform="translate(33.446286, 21.424792)"><g><path d="M 11.285156 -0.34375 L 11.078125 -0.511719 C 10.859375 -0.691406 10.664062 -0.910156 10.515625 -1.160156 L 8.804688 -3.890625 C 8.746094 -3.972656 8.71875 -4.070312 8.746094 -4.179688 C 8.773438 -4.277344 8.832031 -4.359375 8.925781 -4.429688 C 9.273438 -4.675781 9.574219 -4.953125 9.824219 -5.269531 C 10.195312 -5.726562 10.484375 -6.25 10.679688 -6.828125 C 10.871094 -7.410156 10.984375 -8.015625 10.984375 -8.652344 C 10.984375 -9.285156 10.871094 -9.90625 10.679688 -10.484375 C 10.484375 -11.066406 10.195312 -11.589844 9.824219 -12.058594 C 9.382812 -12.582031 8.84375 -12.996094 8.238281 -13.285156 C 7.617188 -13.5625 6.941406 -13.714844 6.222656 -13.714844 L 1.863281 -13.714844 C 1.765625 -13.714844 1.695312 -13.671875 1.667969 -13.589844 C 1.628906 -13.507812 1.640625 -13.4375 1.710938 -13.371094 C 1.933594 -13.121094 2.054688 -12.832031 2.054688 -12.5 L 2.054688 -1.1875 C 2.054688 -0.871094 1.945312 -0.59375 1.738281 -0.359375 C 1.65625 -0.277344 1.640625 -0.207031 1.683594 -0.125 C 1.710938 -0.0429688 1.78125 0 1.890625 0 L 4.980469 0 C 5.0625 0 5.132812 -0.0273438 5.160156 -0.109375 C 5.1875 -0.191406 5.1875 -0.261719 5.132812 -0.34375 C 4.898438 -0.59375 4.789062 -0.871094 4.789062 -1.199219 L 4.789062 -3.214844 C 4.789062 -3.324219 4.816406 -3.421875 4.898438 -3.503906 C 4.980469 -3.585938 5.078125 -3.628906 5.1875 -3.628906 L 5.519531 -3.628906 C 5.65625 -3.628906 5.78125 -3.558594 5.863281 -3.4375 L 7.5625 -0.703125 C 7.628906 -0.578125 7.617188 -0.46875 7.535156 -0.359375 L 7.519531 -0.34375 C 7.464844 -0.261719 7.464844 -0.191406 7.507812 -0.109375 C 7.535156 -0.0273438 7.601562 0 7.699219 0 L 11.191406 0 C 11.285156 0 11.339844 -0.0429688 11.371094 -0.125 C 11.398438 -0.207031 11.371094 -0.277344 11.285156 -0.34375 Z M 7.710938 -7.007812 C 7.367188 -6.566406 6.871094 -6.359375 6.222656 -6.359375 L 5.1875 -6.359375 C 5.078125 -6.359375 4.980469 -6.386719 4.898438 -6.472656 C 4.816406 -6.554688 4.789062 -6.652344 4.789062 -6.761719 L 4.789062 -10.570312 C 4.789062 -10.679688 4.816406 -10.777344 4.898438 -10.859375 C 4.980469 -10.941406 5.078125 -10.984375 5.1875 -10.984375 L 6.222656 -10.984375 C 6.71875 -10.984375 7.09375 -10.871094 7.367188 -10.652344 C 7.644531 -10.429688 7.835938 -10.183594 7.976562 -9.90625 C 8.097656 -9.628906 8.183594 -9.367188 8.210938 -9.121094 C 8.238281 -8.871094 8.25 -8.707031 8.25 -8.652344 C 8.25 -8.320312 8.195312 -8.015625 8.113281 -7.742188 C 8.015625 -7.464844 7.878906 -7.214844 7.710938 -7.007812 Z M 7.710938 -7.007812 "/></g></g></g><g fill="rgb(100%, 75.689697%, 69.799805%)" fill-opacity="0.302"><g transform="translate(46.478176, 21.424792)"><g><path d="M 1.65625 -5.203125 L 9.742188 -5.203125 L 9.742188 -7.78125 L 1.65625 -7.78125 Z M 1.65625 -5.203125 "/></g></g></g><g fill="rgb(100%, 75.689697%, 69.799805%)" fill-opacity="0.302"><g transform="translate(57.869015, 21.424792)"><g><path d="M 11.339844 -10.320312 L 11.273438 -10.402344 C 11.078125 -10.597656 10.957031 -10.816406 10.871094 -11.066406 C 10.625 -11.839844 10.113281 -12.472656 9.367188 -12.96875 C 8.953125 -13.230469 8.484375 -13.4375 7.960938 -13.578125 C 7.4375 -13.714844 6.898438 -13.785156 6.320312 -13.785156 C 5.738281 -13.785156 5.175781 -13.699219 4.636719 -13.5625 C 4.097656 -13.425781 3.613281 -13.21875 3.1875 -12.957031 C 2.609375 -12.597656 2.179688 -12.167969 1.875 -11.660156 C 1.574219 -11.148438 1.433594 -10.597656 1.433594 -9.988281 C 1.433594 -8.832031 1.972656 -7.835938 3.078125 -7.023438 C 3.464844 -6.71875 3.878906 -6.472656 4.332031 -6.25 C 4.789062 -6.03125 5.257812 -5.808594 5.726562 -5.617188 C 6 -5.476562 6.304688 -5.339844 6.609375 -5.203125 C 6.914062 -5.0625 7.1875 -4.910156 7.4375 -4.773438 C 7.683594 -4.621094 7.890625 -4.46875 8.058594 -4.320312 C 8.222656 -4.152344 8.304688 -4 8.304688 -3.847656 C 8.304688 -3.65625 8.238281 -3.476562 8.097656 -3.339844 C 7.960938 -3.199219 7.78125 -3.078125 7.574219 -2.992188 C 7.367188 -2.910156 7.148438 -2.84375 6.898438 -2.800781 C 6.652344 -2.746094 6.429688 -2.730469 6.207031 -2.730469 C 5.933594 -2.730469 5.65625 -2.757812 5.351562 -2.828125 C 5.050781 -2.882812 4.789062 -2.992188 4.582031 -3.144531 C 4.527344 -3.1875 4.484375 -3.242188 4.484375 -3.3125 C 4.46875 -3.378906 4.484375 -3.4375 4.539062 -3.492188 L 4.554688 -3.503906 C 4.59375 -3.574219 4.59375 -3.640625 4.566406 -3.726562 C 4.527344 -3.808594 4.457031 -3.847656 4.375 -3.847656 L 1.324219 -3.847656 C 1.226562 -3.847656 1.160156 -3.808594 1.132812 -3.726562 C 1.089844 -3.640625 1.089844 -3.574219 1.144531 -3.503906 L 1.199219 -3.449219 C 1.394531 -3.230469 1.519531 -2.992188 1.601562 -2.757812 C 1.847656 -1.960938 2.34375 -1.324219 3.117188 -0.839844 C 3.53125 -0.566406 4.015625 -0.359375 4.539062 -0.222656 C 5.0625 -0.0703125 5.628906 0 6.207031 0 C 6.898438 0 7.546875 -0.0976562 8.140625 -0.289062 C 8.734375 -0.484375 9.246094 -0.746094 9.671875 -1.089844 C 10.101562 -1.421875 10.429688 -1.835938 10.679688 -2.304688 C 10.914062 -2.773438 11.039062 -3.285156 11.039062 -3.847656 C 11.039062 -4.441406 10.898438 -4.96875 10.636719 -5.410156 C 10.375 -5.851562 10.042969 -6.238281 9.628906 -6.566406 C 9.214844 -6.898438 8.773438 -7.175781 8.277344 -7.421875 C 7.78125 -7.671875 7.300781 -7.890625 6.828125 -8.113281 C 6.511719 -8.25 6.195312 -8.390625 5.878906 -8.539062 C 5.558594 -8.679688 5.269531 -8.832031 5.023438 -8.996094 C 4.773438 -9.148438 4.566406 -9.3125 4.402344 -9.480469 C 4.234375 -9.644531 4.167969 -9.808594 4.167969 -9.988281 C 4.167969 -10.140625 4.222656 -10.277344 4.359375 -10.417969 C 4.484375 -10.554688 4.648438 -10.664062 4.855469 -10.761719 C 5.050781 -10.84375 5.285156 -10.914062 5.546875 -10.96875 C 5.796875 -11.023438 6.058594 -11.050781 6.320312 -11.050781 C 6.621094 -11.050781 6.925781 -11.011719 7.203125 -10.957031 C 7.476562 -10.886719 7.699219 -10.789062 7.890625 -10.664062 C 7.949219 -10.625 7.988281 -10.570312 7.988281 -10.5 C 7.988281 -10.429688 7.976562 -10.375 7.933594 -10.335938 L 7.933594 -10.320312 C 7.878906 -10.238281 7.878906 -10.167969 7.917969 -10.101562 C 7.949219 -10.015625 8.015625 -9.988281 8.113281 -9.988281 L 11.164062 -9.988281 C 11.246094 -9.988281 11.3125 -10.015625 11.355469 -10.101562 C 11.382812 -10.167969 11.382812 -10.238281 11.339844 -10.320312 Z M 11.339844 -10.320312 "/></g></g></g><g fill="rgb(100%, 75.689697%, 69.799805%)" fill-opacity="0.302"><g transform="translate(70.349296, 21.424792)"><g><path d="M 10.804688 -14.058594 L 10.789062 -14.046875 C 10.542969 -13.824219 10.265625 -13.714844 9.949219 -13.714844 L 2.855469 -13.714844 C 2.523438 -13.714844 2.25 -13.824219 2 -14.046875 L 2 -14.058594 C 1.917969 -14.101562 1.847656 -14.101562 1.765625 -14.058594 C 1.683594 -14.019531 1.65625 -13.964844 1.65625 -13.878906 L 1.65625 -10.816406 C 1.65625 -10.722656 1.683594 -10.652344 1.765625 -10.625 C 1.847656 -10.582031 1.917969 -10.582031 2 -10.636719 C 2.25 -10.859375 2.523438 -10.984375 2.855469 -10.984375 L 4.761719 -10.984375 C 4.828125 -10.984375 4.898438 -10.957031 4.953125 -10.898438 C 5.007812 -10.84375 5.035156 -10.777344 5.035156 -10.707031 L 5.035156 -1.214844 C 5.035156 -0.882812 4.925781 -0.59375 4.703125 -0.359375 L 4.691406 -0.34375 C 4.636719 -0.261719 4.636719 -0.191406 4.675781 -0.109375 C 4.703125 -0.0273438 4.773438 0 4.871094 0 L 7.933594 0 C 8.015625 0 8.070312 -0.0273438 8.113281 -0.109375 C 8.15625 -0.191406 8.15625 -0.261719 8.113281 -0.34375 C 7.878906 -0.59375 7.769531 -0.871094 7.769531 -1.199219 L 7.769531 -10.707031 C 7.769531 -10.777344 7.796875 -10.84375 7.851562 -10.898438 C 7.90625 -10.957031 7.960938 -10.984375 8.042969 -10.984375 L 9.949219 -10.984375 C 10.277344 -10.984375 10.554688 -10.859375 10.789062 -10.636719 L 10.804688 -10.636719 C 10.871094 -10.582031 10.941406 -10.582031 11.023438 -10.625 C 11.105469 -10.652344 11.148438 -10.722656 11.148438 -10.816406 L 11.148438 -13.878906 C 11.148438 -13.964844 11.105469 -14.019531 11.023438 -14.058594 C 10.941406 -14.101562 10.871094 -14.101562 10.804688 -14.058594 Z M 10.804688 -14.058594 "/></g></g></g><g fill="rgb(100%, 75.689697%, 69.799805%)" fill-opacity="0.302"><g transform="translate(83.146751, 21.424792)"><g><path d="M 12.554688 -0.25 C 12.554688 -0.304688 12.527344 -0.34375 12.488281 -0.371094 C 12.167969 -0.632812 11.960938 -0.964844 11.851562 -1.378906 L 8.554688 -12.777344 C 8.484375 -12.996094 8.527344 -13.203125 8.691406 -13.371094 C 8.734375 -13.4375 8.734375 -13.507812 8.707031 -13.589844 C 8.664062 -13.671875 8.597656 -13.714844 8.511719 -13.714844 L 4.871094 -13.714844 C 4.789062 -13.714844 4.71875 -13.671875 4.675781 -13.589844 C 4.636719 -13.507812 4.636719 -13.4375 4.691406 -13.371094 C 4.855469 -13.203125 4.898438 -12.996094 4.828125 -12.777344 L 1.546875 -1.367188 C 1.433594 -0.980469 1.214844 -0.648438 0.898438 -0.371094 C 0.855469 -0.332031 0.828125 -0.289062 0.828125 -0.25 C 0.8125 -0.179688 0.828125 -0.125 0.871094 -0.0703125 C 0.910156 -0.015625 0.964844 0 1.046875 0 L 4.25 0 C 4.332031 0 4.402344 -0.0273438 4.429688 -0.109375 C 4.457031 -0.191406 4.457031 -0.261719 4.402344 -0.332031 C 4.234375 -0.496094 4.195312 -0.703125 4.25 -0.925781 L 4.675781 -2.359375 C 4.71875 -2.511719 4.800781 -2.636719 4.925781 -2.71875 C 5.035156 -2.800781 5.175781 -2.855469 5.339844 -2.855469 L 8.058594 -2.855469 C 8.210938 -2.855469 8.347656 -2.800781 8.472656 -2.71875 C 8.582031 -2.636719 8.664062 -2.511719 8.71875 -2.359375 L 9.132812 -0.925781 C 9.1875 -0.703125 9.132812 -0.511719 8.996094 -0.34375 L 8.996094 -0.332031 C 8.941406 -0.25 8.941406 -0.179688 8.980469 -0.109375 C 9.011719 -0.0273438 9.078125 0 9.175781 0 L 12.347656 0 C 12.417969 0 12.472656 -0.015625 12.515625 -0.0703125 C 12.554688 -0.125 12.570312 -0.179688 12.554688 -0.25 Z M 7.589844 -5.589844 L 5.808594 -5.589844 C 5.753906 -5.589844 5.710938 -5.601562 5.683594 -5.644531 C 5.644531 -5.683594 5.628906 -5.738281 5.65625 -5.796875 L 6.554688 -8.871094 C 6.566406 -8.941406 6.609375 -8.980469 6.691406 -8.980469 C 6.773438 -8.980469 6.816406 -8.941406 6.84375 -8.871094 L 7.726562 -5.796875 C 7.742188 -5.738281 7.726562 -5.683594 7.699219 -5.644531 C 7.671875 -5.601562 7.628906 -5.589844 7.589844 -5.589844 Z M 7.589844 -5.589844 "/></g></g></g><g fill="rgb(100%, 75.689697%, 69.799805%)" fill-opacity="0.302"><g transform="translate(96.537191, 21.424792)"><g><path d="M 11.285156 -0.34375 L 11.078125 -0.511719 C 10.859375 -0.691406 10.664062 -0.910156 10.515625 -1.160156 L 8.804688 -3.890625 C 8.746094 -3.972656 8.71875 -4.070312 8.746094 -4.179688 C 8.773438 -4.277344 8.832031 -4.359375 8.925781 -4.429688 C 9.273438 -4.675781 9.574219 -4.953125 9.824219 -5.269531 C 10.195312 -5.726562 10.484375 -6.25 10.679688 -6.828125 C 10.871094 -7.410156 10.984375 -8.015625 10.984375 -8.652344 C 10.984375 -9.285156 10.871094 -9.90625 10.679688 -10.484375 C 10.484375 -11.066406 10.195312 -11.589844 9.824219 -12.058594 C 9.382812 -12.582031 8.84375 -12.996094 8.238281 -13.285156 C 7.617188 -13.5625 6.941406 -13.714844 6.222656 -13.714844 L 1.863281 -13.714844 C 1.765625 -13.714844 1.695312 -13.671875 1.667969 -13.589844 C 1.628906 -13.507812 1.640625 -13.4375 1.710938 -13.371094 C 1.933594 -13.121094 2.054688 -12.832031 2.054688 -12.5 L 2.054688 -1.1875 C 2.054688 -0.871094 1.945312 -0.59375 1.738281 -0.359375 C 1.65625 -0.277344 1.640625 -0.207031 1.683594 -0.125 C 1.710938 -0.0429688 1.78125 0 1.890625 0 L 4.980469 0 C 5.0625 0 5.132812 -0.0273438 5.160156 -0.109375 C 5.1875 -0.191406 5.1875 -0.261719 5.132812 -0.34375 C 4.898438 -0.59375 4.789062 -0.871094 4.789062 -1.199219 L 4.789062 -3.214844 C 4.789062 -3.324219 4.816406 -3.421875 4.898438 -3.503906 C 4.980469 -3.585938 5.078125 -3.628906 5.1875 -3.628906 L 5.519531 -3.628906 C 5.65625 -3.628906 5.78125 -3.558594 5.863281 -3.4375 L 7.5625 -0.703125 C 7.628906 -0.578125 7.617188 -0.46875 7.535156 -0.359375 L 7.519531 -0.34375 C 7.464844 -0.261719 7.464844 -0.191406 7.507812 -0.109375 C 7.535156 -0.0273438 7.601562 0 7.699219 0 L 11.191406 0 C 11.285156 0 11.339844 -0.0429688 11.371094 -0.125 C 11.398438 -0.207031 11.371094 -0.277344 11.285156 -0.34375 Z M 7.710938 -7.007812 C 7.367188 -6.566406 6.871094 -6.359375 6.222656 -6.359375 L 5.1875 -6.359375 C 5.078125 -6.359375 4.980469 -6.386719 4.898438 -6.472656 C 4.816406 -6.554688 4.789062 -6.652344 4.789062 -6.761719 L 4.789062 -10.570312 C 4.789062 -10.679688 4.816406 -10.777344 4.898438 -10.859375 C 4.980469 -10.941406 5.078125 -10.984375 5.1875 -10.984375 L 6.222656 -10.984375 C 6.71875 -10.984375 7.09375 -10.871094 7.367188 -10.652344 C 7.644531 -10.429688 7.835938 -10.183594 7.976562 -9.90625 C 8.097656 -9.628906 8.183594 -9.367188 8.210938 -9.121094 C 8.238281 -8.871094 8.25 -8.707031 8.25 -8.652344 C 8.25 -8.320312 8.195312 -8.015625 8.113281 -7.742188 C 8.015625 -7.464844 7.878906 -7.214844 7.710938 -7.007812 Z M 7.710938 -7.007812 "/></g></g></g><g fill="rgb(100%, 75.689697%, 69.799805%)" fill-opacity="0.502"><g transform="translate(33.81144, 21.579791)"><g><path d="M 11.285156 -0.34375 L 11.078125 -0.511719 C 10.859375 -0.691406 10.664062 -0.910156 10.515625 -1.160156 L 8.804688 -3.890625 C 8.746094 -3.972656 8.71875 -4.070312 8.746094 -4.179688 C 8.773438 -4.277344 8.832031 -4.359375 8.925781 -4.429688 C 9.273438 -4.675781 9.574219 -4.953125 9.824219 -5.269531 C 10.195312 -5.726562 10.484375 -6.25 10.679688 -6.828125 C 10.871094 -7.410156 10.984375 -8.015625 10.984375 -8.652344 C 10.984375 -9.285156 10.871094 -9.90625 10.679688 -10.484375 C 10.484375 -11.066406 10.195312 -11.589844 9.824219 -12.058594 C 9.382812 -12.582031 8.84375 -12.996094 8.238281 -13.285156 C 7.617188 -13.5625 6.941406 -13.714844 6.222656 -13.714844 L 1.863281 -13.714844 C 1.765625 -13.714844 1.695312 -13.671875 1.667969 -13.589844 C 1.628906 -13.507812 1.640625 -13.4375 1.710938 -13.371094 C 1.933594 -13.121094 2.054688 -12.832031 2.054688 -12.5 L 2.054688 -1.1875 C 2.054688 -0.871094 1.945312 -0.59375 1.738281 -0.359375 C 1.65625 -0.277344 1.640625 -0.207031 1.683594 -0.125 C 1.710938 -0.0429688 1.78125 0 1.890625 0 L 4.980469 0 C 5.0625 0 5.132812 -0.0273438 5.160156 -0.109375 C 5.1875 -0.191406 5.1875 -0.261719 5.132812 -0.34375 C 4.898438 -0.59375 4.789062 -0.871094 4.789062 -1.199219 L 4.789062 -3.214844 C 4.789062 -3.324219 4.816406 -3.421875 4.898438 -3.503906 C 4.980469 -3.585938 5.078125 -3.628906 5.1875 -3.628906 L 5.519531 -3.628906 C 5.65625 -3.628906 5.78125 -3.558594 5.863281 -3.4375 L 7.5625 -0.703125 C 7.628906 -0.578125 7.617188 -0.46875 7.535156 -0.359375 L 7.519531 -0.34375 C 7.464844 -0.261719 7.464844 -0.191406 7.507812 -0.109375 C 7.535156 -0.0273438 7.601562 0 7.699219 0 L 11.191406 0 C 11.285156 0 11.339844 -0.0429688 11.371094 -0.125 C 11.398438 -0.207031 11.371094 -0.277344 11.285156 -0.34375 Z M 7.710938 -7.007812 C 7.367188 -6.566406 6.871094 -6.359375 6.222656 -6.359375 L 5.1875 -6.359375 C 5.078125 -6.359375 4.980469 -6.386719 4.898438 -6.472656 C 4.816406 -6.554688 4.789062 -6.652344 4.789062 -6.761719 L 4.789062 -10.570312 C 4.789062 -10.679688 4.816406 -10.777344 4.898438 -10.859375 C 4.980469 -10.941406 5.078125 -10.984375 5.1875 -10.984375 L 6.222656 -10.984375 C 6.71875 -10.984375 7.09375 -10.871094 7.367188 -10.652344 C 7.644531 -10.429688 7.835938 -10.183594 7.976562 -9.90625 C 8.097656 -9.628906 8.183594 -9.367188 8.210938 -9.121094 C 8.238281 -8.871094 8.25 -8.707031 8.25 -8.652344 C 8.25 -8.320312 8.195312 -8.015625 8.113281 -7.742188 C 8.015625 -7.464844 7.878906 -7.214844 7.710938 -7.007812 Z M 7.710938 -7.007812 "/></g></g></g><g fill="rgb(100%, 75.689697%, 69.799805%)" fill-opacity="0.502"><g transform="translate(46.843329, 21.579791)"><g><path d="M 1.65625 -5.203125 L 9.742188 -5.203125 L 9.742188 -7.78125 L 1.65625 -7.78125 Z M 1.65625 -5.203125 "/></g></g></g><g fill="rgb(100%, 75.689697%, 69.799805%)" fill-opacity="0.502"><g transform="translate(58.234169, 21.579791)"><g><path d="M 11.339844 -10.320312 L 11.273438 -10.402344 C 11.078125 -10.597656 10.957031 -10.816406 10.871094 -11.066406 C 10.625 -11.839844 10.113281 -12.472656 9.367188 -12.96875 C 8.953125 -13.230469 8.484375 -13.4375 7.960938 -13.578125 C 7.4375 -13.714844 6.898438 -13.785156 6.320312 -13.785156 C 5.738281 -13.785156 5.175781 -13.699219 4.636719 -13.5625 C 4.097656 -13.425781 3.613281 -13.21875 3.1875 -12.957031 C 2.609375 -12.597656 2.179688 -12.167969 1.875 -11.660156 C 1.574219 -11.148438 1.433594 -10.597656 1.433594 -9.988281 C 1.433594 -8.832031 1.972656 -7.835938 3.078125 -7.023438 C 3.464844 -6.71875 3.878906 -6.472656 4.332031 -6.25 C 4.789062 -6.03125 5.257812 -5.808594 5.726562 -5.617188 C 6 -5.476562 6.304688 -5.339844 6.609375 -5.203125 C 6.914062 -5.0625 7.1875 -4.910156 7.4375 -4.773438 C 7.683594 -4.621094 7.890625 -4.46875 8.058594 -4.320312 C 8.222656 -4.152344 8.304688 -4 8.304688 -3.847656 C 8.304688 -3.65625 8.238281 -3.476562 8.097656 -3.339844 C 7.960938 -3.199219 7.78125 -3.078125 7.574219 -2.992188 C 7.367188 -2.910156 7.148438 -2.84375 6.898438 -2.800781 C 6.652344 -2.746094 6.429688 -2.730469 6.207031 -2.730469 C 5.933594 -2.730469 5.65625 -2.757812 5.351562 -2.828125 C 5.050781 -2.882812 4.789062 -2.992188 4.582031 -3.144531 C 4.527344 -3.1875 4.484375 -3.242188 4.484375 -3.3125 C 4.46875 -3.378906 4.484375 -3.4375 4.539062 -3.492188 L 4.554688 -3.503906 C 4.59375 -3.574219 4.59375 -3.640625 4.566406 -3.726562 C 4.527344 -3.808594 4.457031 -3.847656 4.375 -3.847656 L 1.324219 -3.847656 C 1.226562 -3.847656 1.160156 -3.808594 1.132812 -3.726562 C 1.089844 -3.640625 1.089844 -3.574219 1.144531 -3.503906 L 1.199219 -3.449219 C 1.394531 -3.230469 1.519531 -2.992188 1.601562 -2.757812 C 1.847656 -1.960938 2.34375 -1.324219 3.117188 -0.839844 C 3.53125 -0.566406 4.015625 -0.359375 4.539062 -0.222656 C 5.0625 -0.0703125 5.628906 0 6.207031 0 C 6.898438 0 7.546875 -0.0976562 8.140625 -0.289062 C 8.734375 -0.484375 9.246094 -0.746094 9.671875 -1.089844 C 10.101562 -1.421875 10.429688 -1.835938 10.679688 -2.304688 C 10.914062 -2.773438 11.039062 -3.285156 11.039062 -3.847656 C 11.039062 -4.441406 10.898438 -4.96875 10.636719 -5.410156 C 10.375 -5.851562 10.042969 -6.238281 9.628906 -6.566406 C 9.214844 -6.898438 8.773438 -7.175781 8.277344 -7.421875 C 7.78125 -7.671875 7.300781 -7.890625 6.828125 -8.113281 C 6.511719 -8.25 6.195312 -8.390625 5.878906 -8.539062 C 5.558594 -8.679688 5.269531 -8.832031 5.023438 -8.996094 C 4.773438 -9.148438 4.566406 -9.3125 4.402344 -9.480469 C 4.234375 -9.644531 4.167969 -9.808594 4.167969 -9.988281 C 4.167969 -10.140625 4.222656 -10.277344 4.359375 -10.417969 C 4.484375 -10.554688 4.648438 -10.664062 4.855469 -10.761719 C 5.050781 -10.84375 5.285156 -10.914062 5.546875 -10.96875 C 5.796875 -11.023438 6.058594 -11.050781 6.320312 -11.050781 C 6.621094 -11.050781 6.925781 -11.011719 7.203125 -10.957031 C 7.476562 -10.886719 7.699219 -10.789062 7.890625 -10.664062 C 7.949219 -10.625 7.988281 -10.570312 7.988281 -10.5 C 7.988281 -10.429688 7.976562 -10.375 7.933594 -10.335938 L 7.933594 -10.320312 C 7.878906 -10.238281 7.878906 -10.167969 7.917969 -10.101562 C 7.949219 -10.015625 8.015625 -9.988281 8.113281 -9.988281 L 11.164062 -9.988281 C 11.246094 -9.988281 11.3125 -10.015625 11.355469 -10.101562 C 11.382812 -10.167969 11.382812 -10.238281 11.339844 -10.320312 Z M 11.339844 -10.320312 "/></g></g></g><g fill="rgb(100%, 75.689697%, 69.799805%)" fill-opacity="0.502"><g transform="translate(70.714449, 21.579791)"><g><path d="M 10.804688 -14.058594 L 10.789062 -14.046875 C 10.542969 -13.824219 10.265625 -13.714844 9.949219 -13.714844 L 2.855469 -13.714844 C 2.523438 -13.714844 2.25 -13.824219 2 -14.046875 L 2 -14.058594 C 1.917969 -14.101562 1.847656 -14.101562 1.765625 -14.058594 C 1.683594 -14.019531 1.65625 -13.964844 1.65625 -13.878906 L 1.65625 -10.816406 C 1.65625 -10.722656 1.683594 -10.652344 1.765625 -10.625 C 1.847656 -10.582031 1.917969 -10.582031 2 -10.636719 C 2.25 -10.859375 2.523438 -10.984375 2.855469 -10.984375 L 4.761719 -10.984375 C 4.828125 -10.984375 4.898438 -10.957031 4.953125 -10.898438 C 5.007812 -10.84375 5.035156 -10.777344 5.035156 -10.707031 L 5.035156 -1.214844 C 5.035156 -0.882812 4.925781 -0.59375 4.703125 -0.359375 L 4.691406 -0.34375 C 4.636719 -0.261719 4.636719 -0.191406 4.675781 -0.109375 C 4.703125 -0.0273438 4.773438 0 4.871094 0 L 7.933594 0 C 8.015625 0 8.070312 -0.0273438 8.113281 -0.109375 C 8.15625 -0.191406 8.15625 -0.261719 8.113281 -0.34375 C 7.878906 -0.59375 7.769531 -0.871094 7.769531 -1.199219 L 7.769531 -10.707031 C 7.769531 -10.777344 7.796875 -10.84375 7.851562 -10.898438 C 7.90625 -10.957031 7.960938 -10.984375 8.042969 -10.984375 L 9.949219 -10.984375 C 10.277344 -10.984375 10.554688 -10.859375 10.789062 -10.636719 L 10.804688 -10.636719 C 10.871094 -10.582031 10.941406 -10.582031 11.023438 -10.625 C 11.105469 -10.652344 11.148438 -10.722656 11.148438 -10.816406 L 11.148438 -13.878906 C 11.148438 -13.964844 11.105469 -14.019531 11.023438 -14.058594 C 10.941406 -14.101562 10.871094 -14.101562 10.804688 -14.058594 Z M 10.804688 -14.058594 "/></g></g></g><g fill="rgb(100%, 75.689697%, 69.799805%)" fill-opacity="0.502"><g transform="translate(83.511905, 21.579791)"><g><path d="M 12.554688 -0.25 C 12.554688 -0.304688 12.527344 -0.34375 12.488281 -0.371094 C 12.167969 -0.632812 11.960938 -0.964844 11.851562 -1.378906 L 8.554688 -12.777344 C 8.484375 -12.996094 8.527344 -13.203125 8.691406 -13.371094 C 8.734375 -13.4375 8.734375 -13.507812 8.707031 -13.589844 C 8.664062 -13.671875 8.597656 -13.714844 8.511719 -13.714844 L 4.871094 -13.714844 C 4.789062 -13.714844 4.71875 -13.671875 4.675781 -13.589844 C 4.636719 -13.507812 4.636719 -13.4375 4.691406 -13.371094 C 4.855469 -13.203125 4.898438 -12.996094 4.828125 -12.777344 L 1.546875 -1.367188 C 1.433594 -0.980469 1.214844 -0.648438 0.898438 -0.371094 C 0.855469 -0.332031 0.828125 -0.289062 0.828125 -0.25 C 0.8125 -0.179688 0.828125 -0.125 0.871094 -0.0703125 C 0.910156 -0.015625 0.964844 0 1.046875 0 L 4.25 0 C 4.332031 0 4.402344 -0.0273438 4.429688 -0.109375 C 4.457031 -0.191406 4.457031 -0.261719 4.402344 -0.332031 C 4.234375 -0.496094 4.195312 -0.703125 4.25 -0.925781 L 4.675781 -2.359375 C 4.71875 -2.511719 4.800781 -2.636719 4.925781 -2.71875 C 5.035156 -2.800781 5.175781 -2.855469 5.339844 -2.855469 L 8.058594 -2.855469 C 8.210938 -2.855469 8.347656 -2.800781 8.472656 -2.71875 C 8.582031 -2.636719 8.664062 -2.511719 8.71875 -2.359375 L 9.132812 -0.925781 C 9.1875 -0.703125 9.132812 -0.511719 8.996094 -0.34375 L 8.996094 -0.332031 C 8.941406 -0.25 8.941406 -0.179688 8.980469 -0.109375 C 9.011719 -0.0273438 9.078125 0 9.175781 0 L 12.347656 0 C 12.417969 0 12.472656 -0.015625 12.515625 -0.0703125 C 12.554688 -0.125 12.570312 -0.179688 12.554688 -0.25 Z M 7.589844 -5.589844 L 5.808594 -5.589844 C 5.753906 -5.589844 5.710938 -5.601562 5.683594 -5.644531 C 5.644531 -5.683594 5.628906 -5.738281 5.65625 -5.796875 L 6.554688 -8.871094 C 6.566406 -8.941406 6.609375 -8.980469 6.691406 -8.980469 C 6.773438 -8.980469 6.816406 -8.941406 6.84375 -8.871094 L 7.726562 -5.796875 C 7.742188 -5.738281 7.726562 -5.683594 7.699219 -5.644531 C 7.671875 -5.601562 7.628906 -5.589844 7.589844 -5.589844 Z M 7.589844 -5.589844 "/></g></g></g><g fill="rgb(100%, 75.689697%, 69.799805%)" fill-opacity="0.502"><g transform="translate(96.902345, 21.579791)"><g><path d="M 11.285156 -0.34375 L 11.078125 -0.511719 C 10.859375 -0.691406 10.664062 -0.910156 10.515625 -1.160156 L 8.804688 -3.890625 C 8.746094 -3.972656 8.71875 -4.070312 8.746094 -4.179688 C 8.773438 -4.277344 8.832031 -4.359375 8.925781 -4.429688 C 9.273438 -4.675781 9.574219 -4.953125 9.824219 -5.269531 C 10.195312 -5.726562 10.484375 -6.25 10.679688 -6.828125 C 10.871094 -7.410156 10.984375 -8.015625 10.984375 -8.652344 C 10.984375 -9.285156 10.871094 -9.90625 10.679688 -10.484375 C 10.484375 -11.066406 10.195312 -11.589844 9.824219 -12.058594 C 9.382812 -12.582031 8.84375 -12.996094 8.238281 -13.285156 C 7.617188 -13.5625 6.941406 -13.714844 6.222656 -13.714844 L 1.863281 -13.714844 C 1.765625 -13.714844 1.695312 -13.671875 1.667969 -13.589844 C 1.628906 -13.507812 1.640625 -13.4375 1.710938 -13.371094 C 1.933594 -13.121094 2.054688 -12.832031 2.054688 -12.5 L 2.054688 -1.1875 C 2.054688 -0.871094 1.945312 -0.59375 1.738281 -0.359375 C 1.65625 -0.277344 1.640625 -0.207031 1.683594 -0.125 C 1.710938 -0.0429688 1.78125 0 1.890625 0 L 4.980469 0 C 5.0625 0 5.132812 -0.0273438 5.160156 -0.109375 C 5.1875 -0.191406 5.1875 -0.261719 5.132812 -0.34375 C 4.898438 -0.59375 4.789062 -0.871094 4.789062 -1.199219 L 4.789062 -3.214844 C 4.789062 -3.324219 4.816406 -3.421875 4.898438 -3.503906 C 4.980469 -3.585938 5.078125 -3.628906 5.1875 -3.628906 L 5.519531 -3.628906 C 5.65625 -3.628906 5.78125 -3.558594 5.863281 -3.4375 L 7.5625 -0.703125 C 7.628906 -0.578125 7.617188 -0.46875 7.535156 -0.359375 L 7.519531 -0.34375 C 7.464844 -0.261719 7.464844 -0.191406 7.507812 -0.109375 C 7.535156 -0.0273438 7.601562 0 7.699219 0 L 11.191406 0 C 11.285156 0 11.339844 -0.0429688 11.371094 -0.125 C 11.398438 -0.207031 11.371094 -0.277344 11.285156 -0.34375 Z M 7.710938 -7.007812 C 7.367188 -6.566406 6.871094 -6.359375 6.222656 -6.359375 L 5.1875 -6.359375 C 5.078125 -6.359375 4.980469 -6.386719 4.898438 -6.472656 C 4.816406 -6.554688 4.789062 -6.652344 4.789062 -6.761719 L 4.789062 -10.570312 C 4.789062 -10.679688 4.816406 -10.777344 4.898438 -10.859375 C 4.980469 -10.941406 5.078125 -10.984375 5.1875 -10.984375 L 6.222656 -10.984375 C 6.71875 -10.984375 7.09375 -10.871094 7.367188 -10.652344 C 7.644531 -10.429688 7.835938 -10.183594 7.976562 -9.90625 C 8.097656 -9.628906 8.183594 -9.367188 8.210938 -9.121094 C 8.238281 -8.871094 8.25 -8.707031 8.25 -8.652344 C 8.25 -8.320312 8.195312 -8.015625 8.113281 -7.742188 C 8.015625 -7.464844 7.878906 -7.214844 7.710938 -7.007812 Z M 7.710938 -7.007812 "/></g></g></g><g fill="rgb(96.859741%, 65.489197%, 22.349548%)" fill-opacity="1"><g transform="translate(34.176593, 21.73479)"><g><path d="M 11.285156 -0.34375 L 11.078125 -0.511719 C 10.859375 -0.691406 10.664062 -0.910156 10.515625 -1.160156 L 8.804688 -3.890625 C 8.746094 -3.972656 8.71875 -4.070312 8.746094 -4.179688 C 8.773438 -4.277344 8.832031 -4.359375 8.925781 -4.429688 C 9.273438 -4.675781 9.574219 -4.953125 9.824219 -5.269531 C 10.195312 -5.726562 10.484375 -6.25 10.679688 -6.828125 C 10.871094 -7.410156 10.984375 -8.015625 10.984375 -8.652344 C 10.984375 -9.285156 10.871094 -9.90625 10.679688 -10.484375 C 10.484375 -11.066406 10.195312 -11.589844 9.824219 -12.058594 C 9.382812 -12.582031 8.84375 -12.996094 8.238281 -13.285156 C 7.617188 -13.5625 6.941406 -13.714844 6.222656 -13.714844 L 1.863281 -13.714844 C 1.765625 -13.714844 1.695312 -13.671875 1.667969 -13.589844 C 1.628906 -13.507812 1.640625 -13.4375 1.710938 -13.371094 C 1.933594 -13.121094 2.054688 -12.832031 2.054688 -12.5 L 2.054688 -1.1875 C 2.054688 -0.871094 1.945312 -0.59375 1.738281 -0.359375 C 1.65625 -0.277344 1.640625 -0.207031 1.683594 -0.125 C 1.710938 -0.0429688 1.78125 0 1.890625 0 L 4.980469 0 C 5.0625 0 5.132812 -0.0273438 5.160156 -0.109375 C 5.1875 -0.191406 5.1875 -0.261719 5.132812 -0.34375 C 4.898438 -0.59375 4.789062 -0.871094 4.789062 -1.199219 L 4.789062 -3.214844 C 4.789062 -3.324219 4.816406 -3.421875 4.898438 -3.503906 C 4.980469 -3.585938 5.078125 -3.628906 5.1875 -3.628906 L 5.519531 -3.628906 C 5.65625 -3.628906 5.78125 -3.558594 5.863281 -3.4375 L 7.5625 -0.703125 C 7.628906 -0.578125 7.617188 -0.46875 7.535156 -0.359375 L 7.519531 -0.34375 C 7.464844 -0.261719 7.464844 -0.191406 7.507812 -0.109375 C 7.535156 -0.0273438 7.601562 0 7.699219 0 L 11.191406 0 C 11.285156 0 11.339844 -0.0429688 11.371094 -0.125 C 11.398438 -0.207031 11.371094 -0.277344 11.285156 -0.34375 Z M 7.710938 -7.007812 C 7.367188 -6.566406 6.871094 -6.359375 6.222656 -6.359375 L 5.1875 -6.359375 C 5.078125 -6.359375 4.980469 -6.386719 4.898438 -6.472656 C 4.816406 -6.554688 4.789062 -6.652344 4.789062 -6.761719 L 4.789062 -10.570312 C 4.789062 -10.679688 4.816406 -10.777344 4.898438 -10.859375 C 4.980469 -10.941406 5.078125 -10.984375 5.1875 -10.984375 L 6.222656 -10.984375 C 6.71875 -10.984375 7.09375 -10.871094 7.367188 -10.652344 C 7.644531 -10.429688 7.835938 -10.183594 7.976562 -9.90625 C 8.097656 -9.628906 8.183594 -9.367188 8.210938 -9.121094 C 8.238281 -8.871094 8.25 -8.707031 8.25 -8.652344 C 8.25 -8.320312 8.195312 -8.015625 8.113281 -7.742188 C 8.015625 -7.464844 7.878906 -7.214844 7.710938 -7.007812 Z M 7.710938 -7.007812 "/></g></g></g><g fill="rgb(96.859741%, 65.489197%, 22.349548%)" fill-opacity="1"><g transform="translate(47.208483, 21.73479)"><g><path d="M 1.65625 -5.203125 L 9.742188 -5.203125 L 9.742188 -7.78125 L 1.65625 -7.78125 Z M 1.65625 -5.203125 "/></g></g></g><g fill="rgb(96.859741%, 65.489197%, 22.349548%)" fill-opacity="1"><g transform="translate(58.599322, 21.73479)"><g><path d="M 11.339844 -10.320312 L 11.273438 -10.402344 C 11.078125 -10.597656 10.957031 -10.816406 10.871094 -11.066406 C 10.625 -11.839844 10.113281 -12.472656 9.367188 -12.96875 C 8.953125 -13.230469 8.484375 -13.4375 7.960938 -13.578125 C 7.4375 -13.714844 6.898438 -13.785156 6.320312 -13.785156 C 5.738281 -13.785156 5.175781 -13.699219 4.636719 -13.5625 C 4.097656 -13.425781 3.613281 -13.21875 3.1875 -12.957031 C 2.609375 -12.597656 2.179688 -12.167969 1.875 -11.660156 C 1.574219 -11.148438 1.433594 -10.597656 1.433594 -9.988281 C 1.433594 -8.832031 1.972656 -7.835938 3.078125 -7.023438 C 3.464844 -6.71875 3.878906 -6.472656 4.332031 -6.25 C 4.789062 -6.03125 5.257812 -5.808594 5.726562 -5.617188 C 6 -5.476562 6.304688 -5.339844 6.609375 -5.203125 C 6.914062 -5.0625 7.1875 -4.910156 7.4375 -4.773438 C 7.683594 -4.621094 7.890625 -4.46875 8.058594 -4.320312 C 8.222656 -4.152344 8.304688 -4 8.304688 -3.847656 C 8.304688 -3.65625 8.238281 -3.476562 8.097656 -3.339844 C 7.960938 -3.199219 7.78125 -3.078125 7.574219 -2.992188 C 7.367188 -2.910156 7.148438 -2.84375 6.898438 -2.800781 C 6.652344 -2.746094 6.429688 -2.730469 6.207031 -2.730469 C 5.933594 -2.730469 5.65625 -2.757812 5.351562 -2.828125 C 5.050781 -2.882812 4.789062 -2.992188 4.582031 -3.144531 C 4.527344 -3.1875 4.484375 -3.242188 4.484375 -3.3125 C 4.46875 -3.378906 4.484375 -3.4375 4.539062 -3.492188 L 4.554688 -3.503906 C 4.59375 -3.574219 4.59375 -3.640625 4.566406 -3.726562 C 4.527344 -3.808594 4.457031 -3.847656 4.375 -3.847656 L 1.324219 -3.847656 C 1.226562 -3.847656 1.160156 -3.808594 1.132812 -3.726562 C 1.089844 -3.640625 1.089844 -3.574219 1.144531 -3.503906 L 1.199219 -3.449219 C 1.394531 -3.230469 1.519531 -2.992188 1.601562 -2.757812 C 1.847656 -1.960938 2.34375 -1.324219 3.117188 -0.839844 C 3.53125 -0.566406 4.015625 -0.359375 4.539062 -0.222656 C 5.0625 -0.0703125 5.628906 0 6.207031 0 C 6.898438 0 7.546875 -0.0976562 8.140625 -0.289062 C 8.734375 -0.484375 9.246094 -0.746094 9.671875 -1.089844 C 10.101562 -1.421875 10.429688 -1.835938 10.679688 -2.304688 C 10.914062 -2.773438 11.039062 -3.285156 11.039062 -3.847656 C 11.039062 -4.441406 10.898438 -4.96875 10.636719 -5.410156 C 10.375 -5.851562 10.042969 -6.238281 9.628906 -6.566406 C 9.214844 -6.898438 8.773438 -7.175781 8.277344 -7.421875 C 7.78125 -7.671875 7.300781 -7.890625 6.828125 -8.113281 C 6.511719 -8.25 6.195312 -8.390625 5.878906 -8.539062 C 5.558594 -8.679688 5.269531 -8.832031 5.023438 -8.996094 C 4.773438 -9.148438 4.566406 -9.3125 4.402344 -9.480469 C 4.234375 -9.644531 4.167969 -9.808594 4.167969 -9.988281 C 4.167969 -10.140625 4.222656 -10.277344 4.359375 -10.417969 C 4.484375 -10.554688 4.648438 -10.664062 4.855469 -10.761719 C 5.050781 -10.84375 5.285156 -10.914062 5.546875 -10.96875 C 5.796875 -11.023438 6.058594 -11.050781 6.320312 -11.050781 C 6.621094 -11.050781 6.925781 -11.011719 7.203125 -10.957031 C 7.476562 -10.886719 7.699219 -10.789062 7.890625 -10.664062 C 7.949219 -10.625 7.988281 -10.570312 7.988281 -10.5 C 7.988281 -10.429688 7.976562 -10.375 7.933594 -10.335938 L 7.933594 -10.320312 C 7.878906 -10.238281 7.878906 -10.167969 7.917969 -10.101562 C 7.949219 -10.015625 8.015625 -9.988281 8.113281 -9.988281 L 11.164062 -9.988281 C 11.246094 -9.988281 11.3125 -10.015625 11.355469 -10.101562 C 11.382812 -10.167969 11.382812 -10.238281 11.339844 -10.320312 Z M 11.339844 -10.320312 "/></g></g></g><g fill="rgb(96.859741%, 65.489197%, 22.349548%)" fill-opacity="1"><g transform="translate(71.079603, 21.73479)"><g><path d="M 10.804688 -14.058594 L 10.789062 -14.046875 C 10.542969 -13.824219 10.265625 -13.714844 9.949219 -13.714844 L 2.855469 -13.714844 C 2.523438 -13.714844 2.25 -13.824219 2 -14.046875 L 2 -14.058594 C 1.917969 -14.101562 1.847656 -14.101562 1.765625 -14.058594 C 1.683594 -14.019531 1.65625 -13.964844 1.65625 -13.878906 L 1.65625 -10.816406 C 1.65625 -10.722656 1.683594 -10.652344 1.765625 -10.625 C 1.847656 -10.582031 1.917969 -10.582031 2 -10.636719 C 2.25 -10.859375 2.523438 -10.984375 2.855469 -10.984375 L 4.761719 -10.984375 C 4.828125 -10.984375 4.898438 -10.957031 4.953125 -10.898438 C 5.007812 -10.84375 5.035156 -10.777344 5.035156 -10.707031 L 5.035156 -1.214844 C 5.035156 -0.882812 4.925781 -0.59375 4.703125 -0.359375 L 4.691406 -0.34375 C 4.636719 -0.261719 4.636719 -0.191406 4.675781 -0.109375 C 4.703125 -0.0273438 4.773438 0 4.871094 0 L 7.933594 0 C 8.015625 0 8.070312 -0.0273438 8.113281 -0.109375 C 8.15625 -0.191406 8.15625 -0.261719 8.113281 -0.34375 C 7.878906 -0.59375 7.769531 -0.871094 7.769531 -1.199219 L 7.769531 -10.707031 C 7.769531 -10.777344 7.796875 -10.84375 7.851562 -10.898438 C 7.90625 -10.957031 7.960938 -10.984375 8.042969 -10.984375 L 9.949219 -10.984375 C 10.277344 -10.984375 10.554688 -10.859375 10.789062 -10.636719 L 10.804688 -10.636719 C 10.871094 -10.582031 10.941406 -10.582031 11.023438 -10.625 C 11.105469 -10.652344 11.148438 -10.722656 11.148438 -10.816406 L 11.148438 -13.878906 C 11.148438 -13.964844 11.105469 -14.019531 11.023438 -14.058594 C 10.941406 -14.101562 10.871094 -14.101562 10.804688 -14.058594 Z M 10.804688 -14.058594 "/></g></g></g><g fill="rgb(96.859741%, 65.489197%, 22.349548%)" fill-opacity="1"><g transform="translate(83.877058, 21.73479)"><g><path d="M 12.554688 -0.25 C 12.554688 -0.304688 12.527344 -0.34375 12.488281 -0.371094 C 12.167969 -0.632812 11.960938 -0.964844 11.851562 -1.378906 L 8.554688 -12.777344 C 8.484375 -12.996094 8.527344 -13.203125 8.691406 -13.371094 C 8.734375 -13.4375 8.734375 -13.507812 8.707031 -13.589844 C 8.664062 -13.671875 8.597656 -13.714844 8.511719 -13.714844 L 4.871094 -13.714844 C 4.789062 -13.714844 4.71875 -13.671875 4.675781 -13.589844 C 4.636719 -13.507812 4.636719 -13.4375 4.691406 -13.371094 C 4.855469 -13.203125 4.898438 -12.996094 4.828125 -12.777344 L 1.546875 -1.367188 C 1.433594 -0.980469 1.214844 -0.648438 0.898438 -0.371094 C 0.855469 -0.332031 0.828125 -0.289062 0.828125 -0.25 C 0.8125 -0.179688 0.828125 -0.125 0.871094 -0.0703125 C 0.910156 -0.015625 0.964844 0 1.046875 0 L 4.25 0 C 4.332031 0 4.402344 -0.0273438 4.429688 -0.109375 C 4.457031 -0.191406 4.457031 -0.261719 4.402344 -0.332031 C 4.234375 -0.496094 4.195312 -0.703125 4.25 -0.925781 L 4.675781 -2.359375 C 4.71875 -2.511719 4.800781 -2.636719 4.925781 -2.71875 C 5.035156 -2.800781 5.175781 -2.855469 5.339844 -2.855469 L 8.058594 -2.855469 C 8.210938 -2.855469 8.347656 -2.800781 8.472656 -2.71875 C 8.582031 -2.636719 8.664062 -2.511719 8.71875 -2.359375 L 9.132812 -0.925781 C 9.1875 -0.703125 9.132812 -0.511719 8.996094 -0.34375 L 8.996094 -0.332031 C 8.941406 -0.25 8.941406 -0.179688 8.980469 -0.109375 C 9.011719 -0.0273438 9.078125 0 9.175781 0 L 12.347656 0 C 12.417969 0 12.472656 -0.015625 12.515625 -0.0703125 C 12.554688 -0.125 12.570312 -0.179688 12.554688 -0.25 Z M 7.589844 -5.589844 L 5.808594 -5.589844 C 5.753906 -5.589844 5.710938 -5.601562 5.683594 -5.644531 C 5.644531 -5.683594 5.628906 -5.738281 5.65625 -5.796875 L 6.554688 -8.871094 C 6.566406 -8.941406 6.609375 -8.980469 6.691406 -8.980469 C 6.773438 -8.980469 6.816406 -8.941406 6.84375 -8.871094 L 7.726562 -5.796875 C 7.742188 -5.738281 7.726562 -5.683594 7.699219 -5.644531 C 7.671875 -5.601562 7.628906 -5.589844 7.589844 -5.589844 Z M 7.589844 -5.589844 "/></g></g></g><g fill="rgb(96.859741%, 65.489197%, 22.349548%)" fill-opacity="1"><g transform="translate(97.267498, 21.73479)"><g><path d="M 11.285156 -0.34375 L 11.078125 -0.511719 C 10.859375 -0.691406 10.664062 -0.910156 10.515625 -1.160156 L 8.804688 -3.890625 C 8.746094 -3.972656 8.71875 -4.070312 8.746094 -4.179688 C 8.773438 -4.277344 8.832031 -4.359375 8.925781 -4.429688 C 9.273438 -4.675781 9.574219 -4.953125 9.824219 -5.269531 C 10.195312 -5.726562 10.484375 -6.25 10.679688 -6.828125 C 10.871094 -7.410156 10.984375 -8.015625 10.984375 -8.652344 C 10.984375 -9.285156 10.871094 -9.90625 10.679688 -10.484375 C 10.484375 -11.066406 10.195312 -11.589844 9.824219 -12.058594 C 9.382812 -12.582031 8.84375 -12.996094 8.238281 -13.285156 C 7.617188 -13.5625 6.941406 -13.714844 6.222656 -13.714844 L 1.863281 -13.714844 C 1.765625 -13.714844 1.695312 -13.671875 1.667969 -13.589844 C 1.628906 -13.507812 1.640625 -13.4375 1.710938 -13.371094 C 1.933594 -13.121094 2.054688 -12.832031 2.054688 -12.5 L 2.054688 -1.1875 C 2.054688 -0.871094 1.945312 -0.59375 1.738281 -0.359375 C 1.65625 -0.277344 1.640625 -0.207031 1.683594 -0.125 C 1.710938 -0.0429688 1.78125 0 1.890625 0 L 4.980469 0 C 5.0625 0 5.132812 -0.0273438 5.160156 -0.109375 C 5.1875 -0.191406 5.1875 -0.261719 5.132812 -0.34375 C 4.898438 -0.59375 4.789062 -0.871094 4.789062 -1.199219 L 4.789062 -3.214844 C 4.789062 -3.324219 4.816406 -3.421875 4.898438 -3.503906 C 4.980469 -3.585938 5.078125 -3.628906 5.1875 -3.628906 L 5.519531 -3.628906 C 5.65625 -3.628906 5.78125 -3.558594 5.863281 -3.4375 L 7.5625 -0.703125 C 7.628906 -0.578125 7.617188 -0.46875 7.535156 -0.359375 L 7.519531 -0.34375 C 7.464844 -0.261719 7.464844 -0.191406 7.507812 -0.109375 C 7.535156 -0.0273438 7.601562 0 7.699219 0 L 11.191406 0 C 11.285156 0 11.339844 -0.0429688 11.371094 -0.125 C 11.398438 -0.207031 11.371094 -0.277344 11.285156 -0.34375 Z M 7.710938 -7.007812 C 7.367188 -6.566406 6.871094 -6.359375 6.222656 -6.359375 L 5.1875 -6.359375 C 5.078125 -6.359375 4.980469 -6.386719 4.898438 -6.472656 C 4.816406 -6.554688 4.789062 -6.652344 4.789062 -6.761719 L 4.789062 -10.570312 C 4.789062 -10.679688 4.816406 -10.777344 4.898438 -10.859375 C 4.980469 -10.941406 5.078125 -10.984375 5.1875 -10.984375 L 6.222656 -10.984375 C 6.71875 -10.984375 7.09375 -10.871094 7.367188 -10.652344 C 7.644531 -10.429688 7.835938 -10.183594 7.976562 -9.90625 C 8.097656 -9.628906 8.183594 -9.367188 8.210938 -9.121094 C 8.238281 -8.871094 8.25 -8.707031 8.25 -8.652344 C 8.25 -8.320312 8.195312 -8.015625 8.113281 -7.742188 C 8.015625 -7.464844 7.878906 -7.214844 7.710938 -7.007812 Z M 7.710938 -7.007812 "/></g></g></g></svg>